<svg width="15" height="15" viewBox="0 0 15 15" fill="none" xmlns="http://www.w3.org/2000/svg">
<path d="M14.2087 2.30204C14.6457 1.865 14.6457 1.15642 14.2087 0.719388V0.719388C13.8114 0.322081 13.1672 0.322081 12.7699 0.719387L7.5 5.98929L2.26607 0.755357C1.8489 0.338185 1.17253 0.338185 0.755357 0.755357V0.755357C0.338185 1.17253 0.338185 1.8489 0.755357 2.26607L5.98929 7.5L0.755357 12.7339C0.338185 13.1511 0.338185 13.8275 0.755357 14.2446V14.2446C1.17253 14.6618 1.8489 14.6618 2.26607 14.2446L7.5 9.01071L12.7339 14.2446C13.1511 14.6618 13.8275 14.6618 14.2446 14.2446V14.2446C14.6618 13.8275 14.6618 13.1511 14.2446 12.7339L9.01071 7.5L14.2087 2.30204Z" fill="#471B68"/>
</svg>
