<svg width="23" height="19" viewBox="0 0 23 19" fill="none" xmlns="http://www.w3.org/2000/svg">
<path d="M0.199991 6.5C0.199991 5.80964 0.759635 5.25 1.44999 5.25H12.7C13.3904 5.25 13.95 5.80964 13.95 6.5V6.5C13.95 7.19036 13.3904 7.75 12.7 7.75H1.44999C0.759635 7.75 0.199991 7.19036 0.199991 6.5V6.5ZM0.199991 1.5C0.199991 2.19036 0.759635 2.75 1.44999 2.75H12.7C13.3904 2.75 13.95 2.19036 13.95 1.5V1.5C13.95 0.809644 13.3904 0.25 12.7 0.25H1.44999C0.759635 0.25 0.199991 0.809644 0.199991 1.5V1.5ZM0.199991 11.5C0.199991 12.1904 0.759635 12.75 1.44999 12.75H7.69999C8.39035 12.75 8.95 12.1904 8.95 11.5V11.5C8.95 10.8096 8.39035 10.25 7.7 10.25H1.44999C0.759635 10.25 0.199991 10.8096 0.199991 11.5V11.5ZM18.9625 8.8375L19.85 7.95C20.3375 7.4625 21.125 7.4625 21.6125 7.95L22.5 8.8375C22.9875 9.325 22.9875 10.1125 22.5 10.6L21.6125 11.4875L18.9625 8.8375ZM18.075 9.725L11.45 16.35V19H14.1L20.725 12.375L18.075 9.725Z" fill="#471B68"/>
</svg>
