<svg width="41" height="38" viewBox="0 0 41 38" fill="none" xmlns="http://www.w3.org/2000/svg">
<path d="M8.11319 27.9465C8.92515 28.7584 10.2416 28.7584 11.0535 27.9465L-nan -nanL-nan -nanL11.0535 27.9465C11.8644 27.1357 11.8656 25.8214 11.0564 25.009L7.14586 21.0833L26.25 21.0833C27.4006 21.0833 28.3334 20.1506 28.3334 19L-nan -nanL-nan -nanL28.3334 19C28.3334 17.8494 27.4006 16.9167 26.25 16.9167L7.14586 16.9167L11.0521 13.0104C11.8641 12.1984 11.8664 10.8826 11.0573 10.0677L-nan -nanL-nan -nanL11.0573 10.0677C10.2441 9.24877 8.92027 9.24643 8.10419 10.0625L1.99512 16.1716C0.433027 17.7337 0.433027 20.2663 1.99512 21.8284L8.11319 27.9465ZM36.6667 33.5833H22.0834C20.9328 33.5833 20 34.5161 20 35.6667L-nan -nanL-nan -nanL20 35.6667C20 36.8173 20.9328 37.75 22.0834 37.75H36.6667C38.9584 37.75 40.8334 35.875 40.8334 33.5833V4.41667C40.8334 2.125 38.9584 0.25 36.6667 0.25H22.0834C20.9328 0.25 20 1.18274 20 2.33334L-nan -nanL-nan -nanL20 2.33334C20 3.48393 20.9328 4.41667 22.0834 4.41667H36.6667V33.5833Z" fill="#2C2D30"/>
</svg>
