<svg width="54" height="54" viewBox="0 0 54 54" fill="none" xmlns="http://www.w3.org/2000/svg">
<path d="M29.6667 16.3334C29.6667 14.8606 28.4728 13.6667 27 13.6667V13.6667C25.5273 13.6667 24.3334 14.8606 24.3334 16.3334V24.3334H16.3334C14.8606 24.3334 13.6667 25.5273 13.6667 27V27C13.6667 28.4728 14.8606 29.6667 16.3334 29.6667H24.3334V37.6667C24.3334 39.1395 25.5273 40.3334 27 40.3334V40.3334C28.4728 40.3334 29.6667 39.1395 29.6667 37.6667V29.6667H37.6667C39.1395 29.6667 40.3334 28.4728 40.3334 27V27C40.3334 25.5273 39.1395 24.3334 37.6667 24.3334H29.6667V16.3334ZM27 0.333374C12.28 0.333374 0.333374 12.28 0.333374 27C0.333374 41.72 12.28 53.6667 27 53.6667C41.72 53.6667 53.6667 41.72 53.6667 27C53.6667 12.28 41.72 0.333374 27 0.333374ZM27 48.3334C15.24 48.3334 5.66671 38.76 5.66671 27C5.66671 15.24 15.24 5.66671 27 5.66671C38.76 5.66671 48.3334 15.24 48.3334 27C48.3334 38.76 38.76 48.3334 27 48.3334Z" fill="#2C2D30"/>
</svg>
