<svg width="22" height="21" viewBox="0 0 22 21" fill="none" xmlns="http://www.w3.org/2000/svg">
<path d="M21.2349 9.30954C21.8978 8.72917 21.5406 7.63726 20.6629 7.56091L14.372 7.01368L11.9224 1.19217C11.5789 0.37572 10.4219 0.376033 10.0788 1.19266L7.628 7.02579L1.34489 7.56353C0.465936 7.63875 0.107867 8.73238 0.772125 9.31287L5.552 13.49L4.11942 19.6847C3.91991 20.5475 4.85742 21.2247 5.61376 20.7642L11 17.4847L16.39 20.7665C17.1458 21.2267 18.0829 20.5507 17.8847 19.6883L16.46 13.49L21.2349 9.30954ZM11 15.2211L6.488 17.9689L7.688 12.7879L3.704 9.30158L8.96 8.84158L11 3.96316L13.052 8.85368L18.308 9.31368L14.324 12.8L15.524 17.9811L11 15.2211Z" fill="#471B68"/>
</svg>
